<svg width="372.453" height="403.32" viewBox="0 0 279.34 302.49" class="displayed_equation" xmlns="http://www.w3.org/2000/svg">
  <defs>
    <clipPath id="svg217169063493tikz_00001a">
      <path d="M 15.734375 124 L 243 124 L 243 286.753906 L 15.734375 286.753906 Z M 15.734375 124" />
    </clipPath>
    <clipPath id="svg217169063493tikz_00001b">
      <path d="M 83 16 L 263.59375 16 L 263.59375 167 L 83 167 Z M 83 16" />
    </clipPath>
    <clipPath id="svg217169063493tikz_00001c">
      <path d="M 88 87 L 263.59375 87 L 263.59375 286.753906 L 88 286.753906 Z M 88 87" />
    </clipPath>
    <clipPath id="svg217169063493tikz_00001d">
      <path d="M 83 156 L 89 156 L 89 286.753906 L 83 286.753906 Z M 83 156" />
    </clipPath>
    <clipPath id="svg217169063493tikz_00001e">
      <path d="M 83 156 L 90 156 L 90 286.753906 L 83 286.753906 Z M 83 156" />
    </clipPath>
    <clipPath id="svg217169063493tikz_00001f">
      <path d="M 83 15.742188 L 263.59375 15.742188 L 263.59375 168 L 83 168 Z M 83 15.742188" />
    </clipPath>
    <clipPath id="svg217169063493tikz_00001g">
      <path d="M 83 87 L 263.59375 87 L 263.59375 286.753906 L 83 286.753906 Z M 83 87" />
    </clipPath>
    <clipPath id="svg217169063493tikz_00001h">
      <path d="M 88 166 L 90 166 L 90 286.753906 L 88 286.753906 Z M 88 166" />
    </clipPath>
  </defs>
  <g clip-path="url(#svg217169063493tikz_00001a)">
    <path d="M 105.546875 272.070313 L 92.199219 286.03125 L 83.960938 286.03125 L 15.765625 273.730469 C 15.765625 273.730469 126.167969 261.699219 149.65625 186.972656 C 157.144531 163.160156 135.039063 141.484375 135.039063 141.484375 L 162.539063 124.605469 L 242.953125 154.964844 L 215.628906 210.785156 Z M 105.546875 272.070313" fill="#d3d3d3" />
  </g>
  <path d="M 145.027344 33.699219 L 145.027344 86.101563 C 144.109375 86.816406 143.203125 87.539063 142.300781 88.269531 L 142.300781 33.167969 Z M 145.027344 33.699219" fill="#664e3d" />
  <path d="M 142.300781 128.449219 L 142.300781 135.199219 C 152.855469 137.222656 162.855469 139.558594 172.195313 142.171875 C 167.347656 143.488281 162.324219 144.742188 157.144531 145.925781 L 157.140625 145.925781 C 150.0625 144.308594 142.6875 142.828125 135.039063 141.484375 L 134.929688 22.566406 C 204.964844 34.875 252.507813 58.878906 252.507813 86.476563 C 252.507813 90.003906 251.730469 93.472656 250.230469 96.867188 C 250.128906 84.609375 241.421875 73.066406 226.125 62.949219 C 220.5625 59.265625 214.125 55.777344 206.914063 52.507813 C 190.09375 44.878906 169.050781 38.464844 145.027344 33.699219 C 144.121094 33.519531 143.210938 33.339844 142.300781 33.167969 Z M 142.300781 128.449219" fill="#84654e" />
  <path d="M 145.027344 124.605469 L 145.027344 133.160156 L 142.300781 135.199219 L 142.300781 128.449219 C 143.191406 127.15625 144.101563 125.871094 145.027344 124.605469 Z M 145.027344 124.605469" fill="#664e3d" />
  <path d="M 145.027344 33.699219 C 169.050781 38.464844 190.09375 44.878906 206.914063 52.507813 C 184.613281 60.160156 163.59375 71.566406 145.027344 86.101563 Z M 145.027344 33.699219" fill="#e3fcff" />
  <g clip-path="url(#svg217169063493tikz_00001b)">
    <path d="M 250.230469 96.867188 C 251.730469 93.472656 252.507813 90.003906 252.507813 86.476563 C 252.507813 58.878906 204.964844 34.875 134.929688 22.566406 L 141.449219 16.136719 C 213.953125 29.929688 263.171875 56.828125 263.171875 87.75 C 263.171875 125.707031 189.023438 157.597656 88.683594 166.628906 L 83.960938 156.875 C 110.582031 154.660156 135.296875 150.90625 157.140625 145.925781 L 157.144531 145.925781 C 162.324219 144.742188 167.347656 143.488281 172.195313 142.171875 C 173.726563 141.757813 175.238281 141.335938 176.730469 140.90625 C 215.640625 129.757813 242.511719 114.3125 250.230469 96.867188 Z M 250.230469 96.867188" fill="#eaba8f" />
  </g>
  <g clip-path="url(#svg217169063493tikz_00001c)">
    <path d="M 2218.18291 1809.967718 L 2218.18291 800.834752 C 2218.18291 480.908324 1593.211884 212.113494 747.482732 135.959349 L 747.482732 1145.125239 C 1593.211884 1221.24646 2218.18291 1490.04129 2218.18291 1809.967718 Z M 2218.18291 1809.967718" transform="matrix(.11864 0 0 -.11864 0 302.49)" fill="#c69e75" stroke-width="6.681" stroke-linecap="round" stroke-linejoin="round" stroke="#000" stroke-miterlimit="10" />
  </g>
  <path d="M 145.027344 86.101563 L 145.027344 124.605469 C 144.101563 125.871094 143.191406 127.15625 142.300781 128.449219 L 142.300781 88.269531 C 143.203125 87.539063 144.109375 86.816406 145.027344 86.101563 Z M 145.027344 86.101563" fill="#664e3d" />
  <path d="M 176.730469 140.90625 L 145.054688 133.167969 C 145.855469 133.332031 163.132813 136.878906 176.730469 140.90625 Z M 176.730469 140.90625" fill="#c69e75" />
  <g clip-path="url(#svg217169063493tikz_00001d)">
    <path d="M 88.683594 166.628906 L 88.683594 286.359375 L 83.960938 276.601563 L 83.960938 156.875 Z M 88.683594 166.628906" fill="#84654e" />
  </g>
  <g clip-path="url(#svg217169063493tikz_00001e)">
    <path d="M 747.482732 1145.125239 L 747.482732 135.959349 L 707.677128 218.204508 L 707.677128 1227.337475 Z M 747.482732 1145.125239" transform="matrix(.11864 0 0 -.11864 0 302.49)" fill="none" stroke-width="6.681" stroke-linecap="round" stroke-linejoin="round" stroke="#000" stroke-miterlimit="10" />
  </g>
  <path d="M226.125 62.949219C241.421875 73.066406 250.128906 84.609375 250.230469 96.867188 242.511719 114.3125 215.640625 129.757813 176.730469 140.90625 163.132813 136.878906 145.855469 133.332031 145.054688 133.167969L145.027344 133.160156 145.027344 124.605469C165.308594 96.777344 193.875 75.039063 226.125 62.949219zM145.027344 33.699219L142.300781 33.167969C143.210938 33.339844 144.121094 33.519531 145.027344 33.699219zM145.027344 33.699219" fill="#e3fcff" />
  <path d="M 145.054688 133.167969 L 176.730469 140.90625 C 175.238281 141.335938 173.726563 141.757813 172.195313 142.171875 C 162.855469 139.558594 152.855469 137.222656 142.300781 135.199219 L 145.027344 133.160156 Z M 145.054688 133.167969" fill="#c69e75" />
  <path d="M 206.914063 52.507813 C 214.125 55.777344 220.5625 59.265625 226.125 62.949219 C 193.875 75.039063 165.308594 96.777344 145.027344 124.605469 L 145.027344 86.101563 C 163.59375 71.566406 184.613281 60.160156 206.914063 52.507813 Z M 206.914063 52.507813" fill="#f5feff" />
  <g clip-path="url(#svg217169063493tikz_00001f)">
    <path d="M 1324.482902 1319.624578 C 1140.369638 1277.645963 932.056938 1246.005611 707.677128 1227.337475 L 747.482732 1145.125239 C 1593.211884 1221.24646 2218.18291 1490.04129 2218.18291 1809.967718 C 2218.18291 2070.597296 1803.335426 2297.314738 1192.225574 2413.570807 L 1137.274744 2359.377239 C 1727.576374 2255.632444 2128.299289 2053.311984 2128.299289 1820.701074 C 2128.299289 1790.970337 2121.747332 1761.733467 2109.104361 1733.122161 C 2044.04574 1586.081775 1817.558769 1455.898683 1489.598786 1361.932436 C 1477.021664 1358.310752 1464.27992 1354.754916 1451.373553 1351.264929" transform="matrix(.11864 0 0 -.11864 0 302.49)" fill="none" stroke-width="6.681" stroke-linecap="round" stroke-linejoin="round" stroke="#000" stroke-miterlimit="10" />
  </g>
  <path d="M1451.373553 1351.264929C1410.514369 1340.169405 1368.173586 1329.600672 1324.515827 1319.624578M1324.515827 1319.624578L1324.482902 1319.624578C1264.823883 1333.255281 1202.66261 1345.733629 1138.196628 1357.059624" transform="matrix(.11864 0 0 -.11864 0 302.49)" fill="none" stroke-width="6.681" stroke-linecap="round" stroke-linejoin="round" stroke="#000" stroke-miterlimit="10" />
  <g clip-path="url(#svg217169063493tikz_00001g)">
    <path d="M 707.677128 1227.337475 L 707.677128 218.204508 L 747.482732 135.959349 C 1593.211884 212.113494 2218.18291 480.908324 2218.18291 800.834752 L 2218.18291 1809.967718" transform="matrix(.11864 0 0 -.11864 0 302.49)" fill="none" stroke-width="6.681" stroke-linecap="round" stroke-linejoin="round" stroke="#000" stroke-miterlimit="10" />
  </g>
  <g clip-path="url(#svg217169063493tikz_00001h)">
    <path d="M 747.482732 1145.125239 L 747.482732 135.959349" transform="matrix(.11864 0 0 -.11864 0 302.49)" fill="none" stroke-width="6.681" stroke-linecap="round" stroke-linejoin="round" stroke="#000" stroke-miterlimit="10" />
  </g>
  <path d="M1137.274744 2359.377239L1138.196628 1357.059624M1199.403094 1410.002065C1288.364832 1392.980148 1372.651305 1373.291355 1451.373553 1351.264929M2109.104361 1731.344243C2109.104361 1731.936882 2109.104361 1732.529521 2109.104361 1733.122161 2108.248327 1836.438939 2034.859832 1933.730551 1905.927868 2019.004756 1859.043517 2050.052468 1804.7841 2079.453961 1744.005651 2107.011686 1602.23317 2171.313046 1424.869409 2225.374917 1222.384327 2265.542689 1214.745866 2267.057212 1207.07448 2268.571734 1199.403094 2270.020408M1222.614798 1427.155679C1229.364301 1425.772854 1374.988937 1395.877496 1489.598786 1361.932436M1222.614798 1427.155679L1222.384327 1427.221528" transform="matrix(.11864 0 0 -.11864 0 302.49)" fill="none" stroke-width="6.681" stroke-linecap="round" stroke-linejoin="round" stroke="#000" stroke-miterlimit="10" />
  <path d="M 1199.403094 1410.002065 L 1222.384327 1427.221528 L 1222.384327 2265.542689 L 1199.403094 2270.020408 Z M 1199.403094 1410.002065" transform="matrix(.11864 0 0 -.11864 0 302.49)" fill="none" stroke-width="6.681" stroke-linecap="round" stroke-linejoin="round" stroke="#000" stroke-miterlimit="10" />
  <path d="M1808.735029 1823.005782L796.112076 1416.850341M735.234854 1964.942885L1808.735029 1823.005782" transform="matrix(.11864 0 0 -.11864 0 302.49)" fill="none" stroke-width="14.699" stroke-linecap="round" stroke-linejoin="round" stroke="#ffcc3b" stroke-miterlimit="10" />
  <path d="M118.84375 73.585938L127.382813 67.523438 128.394531 68.945313 121.382813 73.925781 126.859375 80.550781 125.511719 81.664063zM168.5625 105.296875L165.273438 115.238281 163.613281 114.691406 166.320313 106.527344 157.984375 104.425781 158.410156 102.734375zM168.5625 105.296875" fill="#ffcc3b" />
</svg>