<svg width="244.28" height="455.493" viewBox="0 0 183.21 341.62" class="displayed_equation" xmlns="http://www.w3.org/2000/svg">
  <path d="M 104.502057 2774.859505 C 841.909921 2774.859505 1439.68539 2177.084036 1439.68539 1439.676171 C 1439.68539 702.235383 841.909921 104.459913 104.502057 104.459913" transform="matrix(.11864 0 0 -.11864 0 341.62)" fill="none" stroke-width="6.718" stroke-linecap="round" stroke-linejoin="round" stroke="#000" stroke-miterlimit="10" />
  <path d="M 110.28125 170.8125 C 110.28125 169.246094 109.011719 167.976563 107.445313 167.976563 C 105.878906 167.976563 104.609375 169.246094 104.609375 170.8125 C 104.609375 172.378906 105.878906 173.648438 107.445313 173.648438 C 109.011719 173.648438 110.28125 172.378906 110.28125 170.8125 Z M 110.28125 170.8125" fill="#fbc04f" />
  <path d="M 1439.68539 1439.676171 L 104.502057 1439.676171" transform="matrix(.11864 0 0 -.11864 0 341.62)" fill="none" stroke-width="6.718" stroke-linecap="round" stroke-linejoin="round" stroke="#e14b3b" stroke-miterlimit="10" />
  <path d="M 132.339844 170.8125 L 137.808594 172.878906 L 136.003906 170.8125 L 137.808594 168.75" fill="#e14b3b" />
  <path d="M 1115.445865 1439.676171 L 1161.54003 1422.259162 L 1146.328955 1439.676171 L 1161.54003 1457.060256 Z M 1115.445865 1439.676171" transform="matrix(.11864 0 0 -.11864 0 341.62)" fill="none" stroke-width="6.718" stroke-linecap="round" stroke="#e14b3b" stroke-miterlimit="10" />
  <path d="M 34.996094 170.8125 L 29.527344 172.878906 L 31.332031 170.8125 L 29.527344 168.75" fill="#e14b3b" />
  <path d="M 294.969731 1439.676171 L 248.875566 1422.259162 L 264.08664 1439.676171 L 248.875566 1457.060256 Z M 294.969731 1439.676171" transform="matrix(.11864 0 0 -.11864 0 341.62)" fill="none" stroke-width="6.718" stroke-linecap="round" stroke="#e14b3b" stroke-miterlimit="10" />
  <path d="M 1412.983699 1706.726008 L 104.502057 1706.726008" transform="matrix(.11864 0 0 -.11864 0 341.62)" fill="none" stroke-width="6.718" stroke-linecap="round" stroke-linejoin="round" stroke="#55a4e0" stroke-miterlimit="10" />
  <path d="M 34.679688 139.128906 L 29.210938 141.195313 L 31.015625 139.128906 L 29.210938 137.066406" fill="#55a4e0" />
  <path d="M 292.302854 1706.726008 L 246.208689 1689.308998 L 261.419763 1706.726008 L 246.208689 1724.110093 Z M 292.302854 1706.726008" transform="matrix(.11864 0 0 -.11864 0 341.62)" fill="none" stroke-width="6.718" stroke-linecap="round" stroke="#55a4e0" stroke-miterlimit="10" />
  <path d="M 1412.983699 1172.626335 L 104.502057 1172.626335" transform="matrix(.11864 0 0 -.11864 0 341.62)" fill="none" stroke-width="6.718" stroke-linecap="round" stroke-linejoin="round" stroke="#109e24" stroke-miterlimit="10" />
  <path d="M 34.679688 202.496094 L 29.210938 204.558594 L 31.015625 202.496094 L 29.210938 200.433594" fill="#109e24" />
  <path d="M 292.302854 1172.626335 L 246.208689 1155.24225 L 261.419763 1172.626335 L 246.208689 1190.01042 Z M 292.302854 1172.626335" transform="matrix(.11864 0 0 -.11864 0 341.62)" fill="none" stroke-width="6.718" stroke-linecap="round" stroke="#109e24" stroke-miterlimit="10" />
  <path d="M 1412.983699 1706.726008 L 104.502057 1012.416188" transform="matrix(.11864 0 0 -.11864 0 341.62)" fill="none" stroke-width="6.718" stroke-linecap="round" stroke-linejoin="round" stroke="#55a4e0" stroke-miterlimit="10" />
  <path d="M 129.824219 159.199219 L 135.621094 158.457031 L 133.058594 157.480469 L 133.6875 154.8125" fill="#55a4e0" />
  <path d="M 1094.242549 1537.560423 L 1143.102364 1543.81606 L 1121.503955 1552.04716 L 1126.804784 1574.534528 Z M 1094.242549 1537.560423" transform="matrix(.11864 0 0 -.11864 0 341.62)" fill="none" stroke-width="6.717" stroke-linecap="round" stroke="#55a4e0" stroke-miterlimit="10" />
  <path d="M 1412.983699 1172.626335 L 104.502057 1866.936155" transform="matrix(.11864 0 0 -.11864 0 341.62)" fill="none" stroke-width="6.718" stroke-linecap="round" stroke-linejoin="round" stroke="#109e24" stroke-miterlimit="10" />
  <path d="M 129.824219 182.429688 L 133.6875 186.816406 L 133.058594 184.144531 L 135.621094 183.167969" fill="#109e24" />
  <path d="M 1094.242549 1341.758995 L 1126.804784 1304.78489 L 1121.503955 1327.305182 L 1143.102364 1335.536283 Z M 1094.242549 1341.758995" transform="matrix(.11864 0 0 -.11864 0 341.62)" fill="none" stroke-width="6.717" stroke-linecap="round" stroke="#109e24" stroke-miterlimit="10" />
  <path d="M 905.618642 1495.153791 L 905.618642 1840.234464" transform="matrix(.11864 0 0 -.11864 0 341.62)" fill="none" stroke-width="6.718" stroke-linecap="round" stroke-linejoin="round" stroke="#000" stroke-miterlimit="10" />
  <path d="M 107.445313 168.09375 L 109.507813 162.625 L 107.445313 164.429688 L 105.382813 162.625" />
  <path d="M 905.618642 1462.591556 L 923.002727 1508.685721 L 905.618642 1493.474647 L 888.234557 1508.685721 Z M 905.618642 1462.591556" transform="matrix(.11864 0 0 -.11864 0 341.62)" fill="none" stroke-width="6.718" stroke-linecap="round" stroke="#000" stroke-miterlimit="10" />
  <path d="M95.449219 98.558594L95.449219 98.890625C96.160156 98.890625 96.394531 99.015625 96.394531 99.671875L96.394531 104.460938C96.394531 105.398438 96.273438 105.542969 95.402344 105.542969L95.402344 105.875 98.546875 105.875 98.546875 105.542969C97.644531 105.542969 97.421875 105.421875 97.421875 104.507813L97.421875 102.601563C97.542969 102.65625 97.832031 102.691406 98.054688 102.691406 99.515625 102.691406 100.972656 102.144531 100.972656 100.40625 100.972656 98.925781 99.648438 98.558594 98.222656 98.558594zM97.421875 99.035156C97.65625 99.015625 97.867188 98.992188 98.089844 98.992188 99.292969 98.992188 99.871094 99.5625 99.871094 100.5625 99.871094 101.855469 99.226563 102.234375 98.023438 102.234375 97.800781 102.234375 97.542969 102.210938 97.421875 102.1875L97.421875 99.035156M103.839844 100.472656C102.335938 100.472656 101.34375 101.566406 101.34375 103.179688 101.34375 104.984375 102.28125 105.988281 103.839844 105.988281 105.289063 105.988281 106.3125 105.007813 106.3125 103.136719 106.3125 101.488281 105.367188 100.472656 103.839844 100.472656zM103.792969 100.898438C104.785156 100.898438 105.289063 101.824219 105.289063 103.191406 105.289063 105.007813 104.796875 105.542969 103.882813 105.542969 102.925781 105.554688 102.378906 104.804688 102.378906 103.035156 102.378906 101.609375 102.949219 100.898438 103.792969 100.898438M108.394531 98.15625C108.003906 98.15625 107.757813 98.445313 107.757813 98.78125 107.757813 99.125 108.015625 99.417969 108.394531 99.417969 108.785156 99.417969 109.027344 99.125 109.027344 98.78125 109.027344 98.445313 108.785156 98.15625 108.394531 98.15625zM109.640625 105.5625C108.894531 105.5625 108.839844 105.398438 108.839844 104.75L108.839844 100.503906 108.550781 100.503906 107.144531 100.820313 107.144531 101.140625C107.144531 101.140625 107.269531 101.121094 107.425781 101.121094 107.75 101.121094 107.914063 101.164063 107.914063 101.640625L107.914063 104.75C107.914063 105.386719 107.882813 105.5625 107.132813 105.5625L107.132813 105.875 109.640625 105.875 109.640625 105.5625M115.339844 102.457031C115.339844 101.175781 114.859375 100.472656 113.847656 100.472656 113.148438 100.472656 112.65625 100.875 112.054688 101.410156L112.011719 101.410156 112.019531 100.503906 111.765625 100.503906 110.347656 100.832031 110.347656 101.152344C110.347656 101.152344 110.460938 101.128906 110.652344 101.128906 110.953125 101.128906 111.117188 101.21875 111.117188 101.621094L111.117188 104.75C111.117188 105.375 111.085938 105.5625 110.339844 105.5625L110.339844 105.875 112.890625 105.875 112.890625 105.5625C112.089844 105.5625 112.042969 105.375 112.042969 104.75L112.042969 101.890625C112.378906 101.585938 112.789063 101.1875 113.390625 101.1875 113.890625 101.1875 114.417969 101.398438 114.417969 102.734375L114.417969 104.75C114.417969 105.375 114.382813 105.5625 113.589844 105.5625L113.589844 105.875 116.164063 105.875 116.164063 105.5625C115.417969 105.5625 115.339844 105.375 115.339844 104.75L115.339844 102.457031M119.652344 104.875C119.375 105.183594 119.230469 105.332031 118.875 105.332031 118.4375 105.332031 118.339844 105.0625 118.339844 104.273438L118.339844 101.074219 119.597656 101.074219 119.597656 100.609375 118.339844 100.609375 118.351563 99.082031 118.058594 99.082031C117.660156 100.027344 117.324219 100.496094 116.800781 100.820313L116.800781 101.074219 117.414063 101.074219 117.414063 104.585938C117.414063 105.585938 117.738281 105.988281 118.484375 105.988281 119.195313 105.988281 119.429688 105.652344 119.863281 105.050781L119.652344 104.875M96.390625 113.777344L96.390625 114.246094 97.238281 114.246094 97.238281 117.71875C97.238281 118.589844 97.113281 118.722656 96.300781 118.722656L96.300781 119.046875 99.296875 119.046875 99.296875 118.722656C98.375 118.722656 98.164063 118.589844 98.164063 117.71875L98.164063 114.246094 99.519531 114.246094 99.519531 113.777344 98.164063 113.777344 98.164063 112.785156C98.164063 111.847656 98.285156 111.515625 98.695313 111.515625 99.253906 111.515625 99.308594 112.363281 99.867188 112.363281 100.121094 112.363281 100.324219 112.203125 100.324219 111.882813 100.324219 111.382813 99.800781 111.101563 99.074219 111.101563 98.296875 111.101563 97.894531 111.402344 97.59375 111.917969 97.304688 112.429688 97.238281 112.929688 97.238281 113.777344L96.390625 113.777344M102.414063 113.640625C100.910156 113.640625 99.917969 114.734375 99.917969 116.351563 99.917969 118.152344 100.855469 119.15625 102.414063 119.15625 103.863281 119.15625 104.890625 118.175781 104.890625 116.304688 104.890625 114.65625 103.941406 113.640625 102.414063 113.640625zM102.371094 114.066406C103.363281 114.066406 103.863281 114.992188 103.863281 116.359375 103.863281 118.175781 103.375 118.710938 102.460938 118.710938 101.503906 118.722656 100.957031 117.976563 100.957031 116.207031 100.957031 114.777344 101.523438 114.066406 102.371094 114.066406M109.78125 117.398438C109.28125 118.042969 108.902344 118.320313 108.175781 118.320313 107.03125 118.320313 106.484375 117.363281 106.484375 116.003906 106.484375 114.722656 107.03125 114.054688 107.933594 114.054688 108.890625 114.054688 108.523438 115.324219 109.347656 115.324219 109.660156 115.324219 109.816406 115.148438 109.816406 114.824219 109.816406 114.179688 109.167969 113.640625 108.121094 113.640625 106.515625 113.640625 105.601563 114.777344 105.601563 116.527344 105.601563 118.078125 106.441406 119.15625 107.832031 119.15625 109.023438 119.15625 109.570313 118.453125 109.992188 117.554688L109.78125 117.398438M113.652344 118.355469C113.71875 118.84375 113.828125 119.101563 114.316406 119.101563 114.886719 119.101563 115.152344 118.867188 115.519531 118.332031L115.355469 118.152344C115.199219 118.320313 115.042969 118.433594 114.832031 118.433594 114.597656 118.433594 114.496094 118.34375 114.496094 117.886719L114.496094 115.359375C114.496094 114.199219 114.039063 113.640625 112.824219 113.640625 111.613281 113.640625 110.867188 114.246094 110.867188 114.867188 110.867188 115.234375 111.109375 115.402344 111.332031 115.402344 111.644531 115.402344 111.824219 115.234375 111.824219 114.890625 111.824219 114.222656 111.933594 113.988281 112.570313 113.988281 113.238281 113.988281 113.574219 114.355469 113.574219 115.324219L113.574219 115.816406C112.613281 116.117188 110.640625 116.40625 110.640625 117.875 110.640625 118.589844 111.109375 119.125 111.96875 119.125 112.679688 119.125 113.082031 118.8125 113.605469 118.355469zM113.574219 118.019531C113.195313 118.332031 112.792969 118.511719 112.425781 118.511719 111.945313 118.511719 111.621094 118.164063 111.621094 117.609375 111.621094 116.738281 112.558594 116.4375 113.574219 116.183594L113.574219 118.019531M118.574219 118.722656C117.773438 118.722656 117.714844 118.566406 117.714844 117.921875L117.714844 111.179688 117.4375 111.179688 115.964844 111.570313 115.964844 111.871094C115.964844 111.871094 116.132813 111.847656 116.324219 111.847656 116.601563 111.847656 116.792969 111.871094 116.792969 112.328125L116.792969 117.921875C116.792969 118.546875 116.746094 118.722656 116.011719 118.722656L116.011719 119.046875 118.574219 119.046875 118.574219 118.722656" />
</svg>